<?xml version="1.0" encoding="UTF-8"?>
<svg xmlns="http://www.w3.org/2000/svg" version="1.1" viewBox="0 0 1000 512.7">
  <defs>
    <style>
      .cls-1 {
        fill: #231f20;
      }

      .cls-2 {
        fill: #eb5b00;
      }

      .cls-3 {
        fill: #fff;
      }

      .cls-4 {
        opacity: .4;
      }

      .cls-5 {
        fill: #ffb200;
      }
    </style>
  </defs>
  <!-- Generator: Adobe Illustrator 28.7.7, SVG Export Plug-In . SVG Version: 1.2.0 Build 194)  -->
  <g>
    <g id="Layer_1">
      <g>
        <path class="cls-3" d="M871.1,205.1c-8.2-4.1-17-6.7-26.4-7.9-11.6-11-26-19.1-41.6-23.4-1.2-12-4.5-23.7-9.9-34.7-9.1-18.7-24-34.3-44.3-46.4-19-11.3-38.5-17.1-58-17.1s-2.5,0-3.7,0c-6.3.2-12.5,1.1-18.6,2.5-13.9-21.7-36.5-35.9-64.1-39.3-4.1-.5-8.3-.8-12.3-.8-7.2,0-14.3.8-21.1,2.5-9.6-5.1-20.3-8.4-31.9-9.9-4.2-.5-8.5-.8-12.6-.8-17.3,0-33.4,4.7-47.1,13.4-11.4-6.4-24.2-9.8-37.8-9.8s-10.3.5-15.4,1.4c-8.7,1.6-16.7,4.4-24,8.3-3.3-.4-6.6-.6-9.9-.6-5.1,0-10.3.5-15.5,1.5-20.4,3.8-37.2,14.2-48.8,29.4-2.9-.3-5.9-.5-8.9-.5-7.6,0-15.5.9-23.6,2.8-13.2,3-26.8,8.7-40.5,17-14.1,8.5-26,18.8-35.3,30.7-11.1,14.1-18.1,29.6-20.8,45.9-.2,1.4-.4,2.8-.5,4.3-16,4.2-30.6,12.4-42.5,23.6-9.3,1.1-18.1,3.8-26.2,7.8-42.2,21-54,78.6-46.1,110.2l.5,1.9c12.5,52.5,40.5,84.9,83.3,96.4,11.7,3.2,23.6,4.8,35.5,4.8,12.6,0,24.7-1.8,36-5.1,1.7,2.5,3.5,5,5.5,7.4,11.8,14.1,28.3,24.5,50.3,31.9,13.6,4.6,27.1,6.9,40.2,6.9s15.4-.8,22.8-2.4c3.7-.8,7.3-1.8,10.9-3,13.8,13.4,34.8,25.4,66.2,28.5,4.5.4,9,.7,13.4.7,23,0,40.6-6.1,53.9-14,1.3.7,2.5,1.5,3.8,2.2,14.9,7.8,31.9,11.8,50.3,11.8s8.5-.2,12.9-.6c19.5-1.8,36.6-6.9,50.8-15.2,2.4-1.4,4.8-2.9,7-4.4,8.1,2.8,16.5,4.3,25.2,4.3s16.9-1.4,25.5-4.2c8.6-2.8,16.4-6.9,23.3-12.1,8.8,0,17.7-1.6,27-4.6,17.6-5.9,32.2-16.7,42.3-31,8.8,1.9,18.1,3,27.6,3h0c11.9,0,23.8-1.6,35.4-4.7,42.7-11.5,70.8-43.8,83.3-96l.5-2c8-31.8-3.8-89.5-45.9-110.4Z"/>
        <g>
          <g>
            <circle class="cls-2" cx="777.6" cy="271.9" r="40.1"/>
            <path class="cls-2" d="M745,331.2c7,26,39.8,39.9,73.3,30.9,33.5-9,39.8-43.8,43-56.6,3.2-12.9-4.3-39.2-15.9-45-13.8-6.9-34.3,2.5-52.5,7.4-33.5,9-54.9,37.4-47.9,63.4Z"/>
            <g class="cls-4">
              <path class="cls-3" d="M801.6,311.8c3.1,11.5,17.6,17.6,32.4,13.7,14.8-4,17.6-19.4,19-25.1,1.4-5.7-1.9-17.4-7-19.9-6.1-3-15.2,1.1-23.2,3.3-14.8,4-24.3,16.5-21.2,28.1Z"/>
            </g>
            <g>
              <circle class="cls-3" cx="761.1" cy="265.4" r="8.3"/>
              <circle class="cls-1" cx="756.4" cy="265.8" r="2.6"/>
            </g>
            <g>
              <circle class="cls-3" cx="746" cy="269.5" r="8.3"/>
              <circle class="cls-1" cx="749.7" cy="270.3" r="2.6"/>
            </g>
            <path class="cls-5" d="M744.5,277.5c9.7-1.6,25.9,6.5,26.9,10.3s-13.4,15.1-28.7,12.5c-15.3-2.6-17.2-5-16.4-6.6.8-1.6,12.7-15.2,18.2-16.2Z"/>
          </g>
          <g>
            <circle class="cls-5" cx="223" cy="271.9" r="40.1"/>
            <path class="cls-5" d="M255.6,331.2c-7,26-39.8,39.9-73.3,30.9-33.5-9-39.8-43.8-43-56.6-3.2-12.9,4.3-39.2,15.9-45,13.8-6.9,34.3,2.5,52.5,7.4,33.5,9,54.9,37.4,47.9,63.4Z"/>
            <g class="cls-4">
              <path class="cls-3" d="M199,311.8c-3.1,11.5-17.6,17.6-32.4,13.7-14.8-4-17.6-19.4-19-25.1-1.4-5.7,1.9-17.4,7-19.9,6.1-3,15.2,1.1,23.2,3.3,14.8,4,24.3,16.5,21.2,28.1Z"/>
            </g>
            <g>
              <circle class="cls-3" cx="239.5" cy="265.4" r="8.3"/>
              <circle class="cls-1" cx="244.2" cy="265.8" r="2.6"/>
            </g>
            <g>
              <circle class="cls-3" cx="254.5" cy="269.5" r="8.3"/>
              <circle class="cls-1" cx="251.8" cy="271.9" r="2.6"/>
            </g>
            <path class="cls-2" d="M256.1,277.5c-9.7-1.6-25.9,6.5-26.9,10.3-1,3.8,13.4,15.1,28.7,12.5,15.3-2.6,17.2-5,16.4-6.6-.8-1.6-12.7-15.2-18.2-16.2Z"/>
          </g>
          <g>
            <path class="cls-2" d="M255.6,182.7c1.1-6.7,4.2-13.3,9.3-19.7,5.1-6.4,11.7-12.1,19.8-17,8.5-5.1,16.4-8.5,23.7-10.2,7.3-1.7,13.6-1.8,18.8-.3,5.2,1.5,9,4.3,11.5,8.4,3.1,5.1,2.9,10-.5,14.5-3.5,4.5-9.6,9.4-18.3,14.7l-22.3,13.4,3.8,6.4,18.4-11c6.5-3.9,12.7-6.2,18.8-7,6.1-.8,11.6,0,16.7,2.5,5.1,2.4,9.3,6.4,12.7,12,4.1,6.7,5.8,13.6,5.2,20.6-.6,7-3.4,13.8-8.6,20.6s-12.5,12.9-21.9,18.6c-7.7,4.6-15.3,7.8-22.7,9.5-7.4,1.7-14.1,1.7-20.1,0-5.9-1.7-10.5-5.2-13.5-10.3-2.8-4.7-3.5-8.9-2.1-12.7,1.4-3.8,4.1-7.1,8.2-9.8,4.1-2.8,8.9-5.2,14.6-7.2l29.9-10.9-3.9-6.5-30,11c-10.7,3.9-19.5,4.9-26.6,3.1s-12.8-6.5-17.2-13.9c-3.4-5.7-4.6-11.9-3.5-18.6Z"/>
            <path class="cls-2" d="M391.9,207.7c-10-9-16.9-23.3-20.5-43.1-3.4-18.4-4.1-32.6-2-42.5,2.1-9.9,8-15.8,17.8-17.6,7.4-1.4,13.3.1,17.5,4.6,4.2,4.4,7.2,10.9,8.7,19.5l11.3,61,7.3-1.4-11.3-61c-1.6-8.5-1.2-15.6,1.2-21.3,2.4-5.6,7.3-9.2,14.7-10.5,9.8-1.8,17.4,1.5,22.9,10,5.5,8.5,10,22,13.4,40.4,3.7,19.7,2.4,35.6-3.7,47.6-6.1,12-18.1,19.6-35.8,22.9-17.7,3.3-31.6.4-41.6-8.5Z"/>
            <path class="cls-2" d="M564.3,128.4l.4-3.5c.7-5.3,2.4-10.1,5.1-14.1,2.7-4.1,6.4-7.1,11.1-9.1,4.7-2,10.1-2.6,16.4-1.8,12.6,1.6,21.2,7.6,25.6,18.1,4.4,10.5,5.3,26.3,2.6,47.6-2.2,17.7-5.9,31.2-11,40.6-5.1,9.4-12.7,13.5-22.9,12.2-7.3-.9-12-3.9-14.3-9.1-2.2-5.1-2.8-12.2-1.7-21.1l5.7-45.6-7.4-.9-6.9,54.8c-.7,5.4-2.5,9.7-5.4,12.9-2.9,3.1-6.9,4.4-11.9,3.8-5-.6-8.6-2.8-10.6-6.6s-2.7-8.3-2-13.8l6.9-54.8-7.4-.9-5.7,45.6c-1.1,8.9-3.4,15.6-6.8,20-3.4,4.4-8.8,6.2-16.1,5.3-10.2-1.3-16.6-7.1-19.2-17.5-2.6-10.4-2.8-24.4-.6-42.1,2.7-21.3,7.4-36.4,14.3-45.4,6.9-9,16.6-12.8,29.2-11.2,6.3.8,11.4,2.7,15.5,5.8,4,3.1,6.9,6.9,8.5,11.5,1.6,4.6,2.1,9.6,1.4,15l-.4,3.5,7.4.9Z"/>
            <path class="cls-2" d="M636.7,225.3c-4.2-8.5-5.6-17.5-4.2-27,1.4-9.5,5-19.1,10.8-28.9,5.8-9.8,12.6-17.5,20.3-23.2,7.7-5.7,16.3-8.7,25.8-9.1,9.5-.4,19.5,2.6,30.1,8.9,10.6,6.3,17.9,13.7,22.1,22.2,4.1,8.5,5.5,17.5,4.1,27-1.4,9.5-5,19.1-10.8,28.9-5.8,9.8-12.6,17.5-20.3,23.2-7.7,5.7-16.3,8.8-25.7,9.1-9.5.4-19.5-2.6-30-8.9-10.6-6.3-18-13.7-22.1-22.3ZM675.3,227.2l34.1-57.2-6.4-3.8-34.1,57.2,6.4,3.8Z"/>
          </g>
          <g>
            <path class="cls-5" d="M288.3,387.5c-4.8-5.7-7-12.9-6.7-21.6.3-8.7,2.9-20.1,7.7-34.3,4.8-14.2,9.6-24.9,14.6-32,5-7.1,11.1-11.5,18.3-13.2,7.3-1.7,16.7-.5,28.3,3.4,11.9,4,21.1,9.8,27.7,17.5,6.6,7.7,10.5,16.4,11.8,26.3,1.3,9.9.1,20.1-3.4,30.7-3.6,10.6-8.8,19.4-15.8,26.5-7,7.1-15.4,11.7-25.3,13.9-9.9,2.1-20.8,1.2-32.6-2.8-11.6-3.9-19.8-8.7-24.6-14.4ZM330.5,380.5l21.2-63.1-7.1-2.4-21.2,63.1,7.1,2.4Z"/>
            <path class="cls-5" d="M402.7,409.5c-7.2-11.4-9.8-27.1-7.8-47.1,1.8-18.6,5.1-32.4,9.9-41.4,4.8-8.9,12.1-12.9,22-12,7.5.7,12.7,3.8,15.6,9.2,2.9,5.4,3.9,12.5,3,21.1l-6,61.8,7.4.7,6-61.8c.8-8.7,3.2-15.4,7-20.1,3.8-4.8,9.5-6.8,17-6.1,9.9,1,16.3,6.3,19.3,16,3,9.7,3.5,23.9,1.7,42.5-1.9,20-7.5,34.9-16.7,44.7-9.2,9.8-22.8,13.9-40.7,12.1-17.9-1.7-30.5-8.3-37.6-19.7Z"/>
            <path class="cls-5" d="M566,365.7c-2.6-.3-4.2-1.3-5-3-.8-1.7-1.4-5.2-1.9-10.6l-1.4-15.3-7.4.7,6.2,66,7.4-.7-1.3-13.4c-.5-5.5-.5-9.1,0-11,.4-1.9,1.9-3.1,4.4-3.8,2.5-.7,7.4-1.4,14.8-2.1,7.5-.7,13.2-.6,17.1.4,3.9,1,6.6,2.8,8.1,5.3,1.5,2.6,2.5,6.2,3,10.8.6,6.1-.6,12-3.6,17.7-3,5.7-8,10.7-15.1,14.8-7.1,4.1-16.3,6.7-27.5,7.7-12.4,1.2-22.8-.5-31.2-4.9-8.4-4.4-14.9-10.8-19.4-19.3-4.5-8.5-7.3-18.4-8.3-29.7-1.1-11.3-.2-21.6,2.6-30.7,2.8-9.2,8-16.7,15.4-22.6,7.4-5.9,17.4-9.4,29.7-10.6,10.8-1,20.1,0,28,3.2,7.8,3.2,13.8,7.5,18,12.9,4.2,5.4,6.6,11,7.1,16.6.4,4.4.1,8-.9,10.7-1,2.7-3.4,4.9-7,6.6-3.6,1.7-9.2,2.9-16.7,3.6-7.4.7-12.4.9-15,.6Z"/>
            <path class="cls-5" d="M607.7,329.3c-.7-8.8.2-15.3,2.7-19.8,2.5-4.4,6.5-7.6,12-9.4,13.8-4.6,23.6,2.3,29.7,20.4l6.2,18.9,7.1-2.3,6.9,20.8-7.1,2.3,6.2,18.7c3,8.9,3.3,16.2,1.1,21.9-2.2,5.6-6.5,9.5-12.9,11.6-5.5,1.8-10.6,1.7-15.3-.4-4.7-2.1-9.4-7-14.1-14.6-4.7-7.6-9.5-18.8-14.4-33.5-4.8-14.3-7.5-25.9-8.2-34.6ZM711.1,339.6c6,4.1,10.5,10.8,13.6,20.2,3.1,9.2,3.2,16.9.4,23.1-2.8,6.1-7.9,10.5-15.5,13-7.5,2.5-13.8,2.2-18.9-.9-5.2-3.1-9.2-9.1-12.2-18.2l-19.4-58.5c-3.2-9.6-3.6-17.2-1.4-22.7,2.3-5.5,7-9.4,14.2-11.8,7.2-2.4,13.6-2.2,19.2.4s9.8,8,12.4,15.9c2.4,7.2,2.4,13.9,0,20.3-2.4,6.3-6.4,11-12,14.1l.2.6c6.9-1.1,13.4.4,19.4,4.5Z"/>
          </g>
        </g>
      </g>
    </g>
  </g>
</svg>